<?xml version="1.0" encoding="UTF-8" standalone="no"?>
<!DOCTYPE svg PUBLIC "-//W3C//DTD SVG 1.1//EN"
 "http://www.w3.org/Graphics/SVG/1.1/DTD/svg11.dtd">
<!-- Generated by graphviz version 2.43.0 (0)
 -->
<!-- Title: %3 Pages: 1 -->
<svg width="448pt" height="105pt"
 viewBox="0.00 0.00 448.00 105.00" xmlns="http://www.w3.org/2000/svg" xmlns:xlink="http://www.w3.org/1999/xlink">
<g id="graph0" class="graph" transform="scale(1 1) rotate(0) translate(4 101)">
<title>%3</title>
<polygon fill="white" stroke="transparent" points="-4,4 -4,-101 444,-101 444,4 -4,4"/>
<!-- 134835938518624 -->
<g id="node1" class="node">
<title>134835938518624</title>
<polygon fill="none" stroke="black" points="314,-27.5 314,-63.5 440,-63.5 440,-27.5 314,-27.5"/>
<text text-anchor="middle" x="377" y="-41.8" font-family="Times,serif" font-size="14.00">val=12 grad=1</text>
</g>
<!-- 134835935436128 -->
<g id="node2" class="node">
<title>134835935436128</title>
<polygon fill="none" stroke="black" points="154,-55.5 154,-91.5 271,-91.5 271,-55.5 154,-55.5"/>
<text text-anchor="middle" x="212.5" y="-69.8" font-family="Times,serif" font-size="14.00">val=6 grad=1</text>
</g>
<!-- 134835935436128&#45;&gt;134835938518624 -->
<g id="edge6" class="edge">
<title>134835935436128&#45;&gt;134835938518624</title>
<path fill="none" stroke="black" d="M271.25,-63.55C281.8,-61.73 292.92,-59.82 303.82,-57.94"/>
<polygon fill="black" stroke="black" points="304.49,-61.37 313.75,-56.23 303.3,-54.47 304.49,-61.37"/>
<text text-anchor="middle" x="292.5" y="-63.3" font-family="Times,serif" font-size="14.00">*</text>
</g>
<!-- 134835935437712 -->
<g id="node3" class="node">
<title>134835935437712</title>
<polygon fill="none" stroke="black" points="154,-0.5 154,-36.5 271,-36.5 271,-0.5 154,-0.5"/>
<text text-anchor="middle" x="212.5" y="-14.8" font-family="Times,serif" font-size="14.00">val=6 grad=1</text>
</g>
<!-- 134835935437712&#45;&gt;134835938518624 -->
<g id="edge1" class="edge">
<title>134835935437712&#45;&gt;134835938518624</title>
<path fill="none" stroke="black" d="M271.22,-27.47C279.54,-28.8 287.99,-30.17 296,-31.5 298.65,-31.94 301.34,-32.39 304.06,-32.85"/>
<polygon fill="black" stroke="black" points="303.55,-36.32 314,-34.54 304.73,-29.41 303.55,-36.32"/>
<text text-anchor="middle" x="292.5" y="-35.3" font-family="Times,serif" font-size="14.00">*</text>
</g>
<!-- 134835935436224 -->
<g id="node4" class="node">
<title>134835935436224</title>
<polygon fill="none" stroke="black" points="0,-60.5 0,-96.5 117,-96.5 117,-60.5 0,-60.5"/>
<text text-anchor="middle" x="58.5" y="-74.8" font-family="Times,serif" font-size="14.00">val=2 grad=6</text>
</g>
<!-- 134835935436224&#45;&gt;134835935436128 -->
<g id="edge2" class="edge">
<title>134835935436224&#45;&gt;134835935436128</title>
<path fill="none" stroke="black" d="M117.4,-76.6C125.96,-76.31 134.85,-76.02 143.59,-75.73"/>
<polygon fill="black" stroke="black" points="143.88,-79.23 153.76,-75.4 143.65,-72.23 143.88,-79.23"/>
</g>
<!-- 134835935436224&#45;&gt;134835935437712 -->
<g id="edge3" class="edge">
<title>134835935436224&#45;&gt;134835935437712</title>
<path fill="none" stroke="black" d="M105.11,-60.5C121.11,-54.18 139.28,-47.01 156.01,-40.41"/>
<polygon fill="black" stroke="black" points="157.65,-43.52 165.66,-36.59 155.08,-37.01 157.65,-43.52"/>
</g>
<!-- 134835935435216 -->
<g id="node5" class="node">
<title>134835935435216</title>
<polygon fill="none" stroke="black" points="0,-0.5 0,-36.5 117,-36.5 117,-0.5 0,-0.5"/>
<text text-anchor="middle" x="58.5" y="-14.8" font-family="Times,serif" font-size="14.00">val=3 grad=4</text>
</g>
<!-- 134835935435216&#45;&gt;134835935436128 -->
<g id="edge5" class="edge">
<title>134835935435216&#45;&gt;134835935436128</title>
<path fill="none" stroke="black" d="M109.27,-36.51C122.92,-41.45 137.85,-46.85 151.99,-51.97"/>
<polygon fill="black" stroke="black" points="151.02,-55.34 161.62,-55.45 153.41,-48.76 151.02,-55.34"/>
</g>
<!-- 134835935435216&#45;&gt;134835935437712 -->
<g id="edge4" class="edge">
<title>134835935435216&#45;&gt;134835935437712</title>
<path fill="none" stroke="black" d="M117.4,-18.5C125.96,-18.5 134.85,-18.5 143.59,-18.5"/>
<polygon fill="black" stroke="black" points="143.76,-22 153.76,-18.5 143.76,-15 143.76,-22"/>
</g>
</g>
</svg>
